<svg width="14" height="15" viewBox="0 0 14 15" fill="none" xmlns="http://www.w3.org/2000/svg">
<path d="M3.9427 7.00082C4.01326 7.96163 3.29158 8.79772 2.33078 8.86828C1.36998 8.93885 0.533887 8.21717 0.463321 7.25637C0.392756 6.29556 1.11444 5.45947 2.07524 5.38891C3.03604 5.31834 3.87213 6.04002 3.9427 7.00082Z" fill="white"/>
<path fill-rule="evenodd" clip-rule="evenodd" d="M5.8808 7.41016C5.92609 6.49607 5.69927 5.67886 5.24965 5.15085C4.78015 4.59949 4.8465 3.77192 5.39786 3.30242C5.94922 2.83291 6.77679 2.89927 7.24629 3.45062C8.25784 4.63852 8.56703 6.18824 8.50006 7.53993C8.43379 8.87758 7.98775 10.2677 7.18072 11.2027C6.70754 11.7509 5.87954 11.8117 5.33134 11.3385C4.78313 10.8653 4.72232 10.0373 5.19551 9.48913C5.52035 9.11278 5.83482 8.33829 5.8808 7.41016Z" fill="white"/>
<path fill-rule="evenodd" clip-rule="evenodd" d="M11.3698 6.95663C11.2896 5.10195 10.6004 3.36203 9.51654 2.20957C9.02041 1.68205 9.04585 0.852213 9.57337 0.356077C10.1009 -0.140059 10.9307 -0.114616 11.4269 0.412906C13.0047 2.0906 13.8868 4.45955 13.9898 6.84342C14.0932 9.23664 13.416 11.7653 11.7162 13.7346C11.243 14.2828 10.415 14.3436 9.86679 13.8705C9.31858 13.3973 9.25777 12.5693 9.73096 12.0211C10.9217 10.6415 11.4495 8.80196 11.3698 6.95663Z" fill="white"/>
</svg>
