<svg width="24" height="25" viewBox="0 0 24 25" fill="none" xmlns="http://www.w3.org/2000/svg">
<circle cx="12" cy="12" r="12" transform="matrix(1 0 0 -1 0 24.8105)" fill="#C1C1C1"/>
<path d="M14.4158 8.40499L13.6603 9.16046C13.1962 9.62463 12.724 10.0808 12.2726 10.5578C12.0582 10.7818 11.911 10.7595 11.6998 10.5483L8.94041 7.78894C8.69931 7.54976 8.37888 7.40726 8.0397 7.38836C7.70053 7.36946 7.36611 7.47548 7.09966 7.68638C6.83322 7.89728 6.65322 8.19844 6.59368 8.53293C6.53415 8.86742 6.5992 9.21206 6.77656 9.5017C6.86823 9.64042 6.97677 9.76723 7.09967 9.87923L9.72309 12.5026C10.0142 12.7938 10.0142 12.8162 9.71651 13.1139L6.97952 15.8509C6.74501 16.0915 6.60524 16.4087 6.58593 16.7441C6.56662 17.0795 6.66906 17.4105 6.8744 17.6762C7.07975 17.9419 7.37419 18.1245 7.70355 18.1903C8.03291 18.2562 8.37505 18.2009 8.667 18.0346C8.80906 17.9472 8.93788 17.8399 9.04952 17.716L11.5752 15.1903C11.993 14.7726 11.993 14.7725 12.4217 15.2013L15.0403 17.8199C15.2686 18.0536 15.5735 18.1971 15.8992 18.2241C16.2249 18.251 16.5494 18.1596 16.8132 17.9666C17.0995 17.7682 17.3004 17.4691 17.3758 17.1291C17.4513 16.7892 17.3957 16.4333 17.2202 16.1327C17.1329 15.9897 17.0258 15.8599 16.9019 15.7472L14.3264 13.1718C13.9553 12.8006 13.9553 12.8006 14.3378 12.4181C15.2342 11.5218 16.1433 10.635 17.0284 9.72752C17.2615 9.47289 17.3918 9.14079 17.3938 8.79568C17.3959 8.45058 17.2697 8.11708 17.0397 7.85993C16.8097 7.60279 16.4922 7.44034 16.1491 7.40411C15.8059 7.36789 15.4614 7.46048 15.1825 7.66391C14.9146 7.8978 14.6587 8.14515 14.4158 8.40499Z" fill="#868686"/>
</svg>
