<svg width="16" height="16" viewBox="0 0 16 16" fill="none" xmlns="http://www.w3.org/2000/svg">
<g clip-path="url(#clip0_1_27)">
<path d="M16 3.22312V12.8406L15.9462 13.0521C15.6279 14.3094 14.4653 15.2234 13.1675 15.2243C9.72766 15.2268 6.28794 15.2268 2.84835 15.2243C1.29069 15.2243 0.00209809 13.9311 0.00126378 12.3797C0.00042947 9.52383 1.23147e-05 6.66687 1.23147e-05 3.8088C-0.000410351 3.66319 0.0100477 3.51776 0.031299 3.37371C0.226945 2.04257 1.45338 0.966721 2.79996 0.96547C6.29155 0.961298 9.78328 0.961298 13.2752 0.96547C13.9922 0.966721 14.6138 1.23245 15.1428 1.71343C15.5941 2.12224 15.8619 2.63618 16 3.22312ZM8.00648 2.63618C6.28446 2.63618 4.56244 2.63326 2.84042 2.63618C2.19383 2.63618 1.64903 3.17848 1.64819 3.81673C1.64541 6.69399 1.64541 9.57111 1.64819 12.4481C1.64819 13.0847 2.19967 13.637 2.83876 13.6378C6.30365 13.6412 9.76868 13.6412 13.2339 13.6378C13.5939 13.6378 13.8863 13.4814 14.1045 13.1931C14.2847 12.9549 14.3456 12.6825 14.3452 12.3872C14.3429 9.55665 14.3429 6.72625 14.3452 3.89599C14.3498 3.78161 14.34 3.6671 14.316 3.55517C14.2514 3.29306 14.1007 3.06018 13.8881 2.8938C13.6755 2.72742 13.4133 2.63715 13.1433 2.63743C11.4308 2.63465 9.71848 2.63423 8.00648 2.63618Z" fill="#828282"/>
<path d="M7.96144 12.3093C6.78006 12.3093 5.59895 12.3093 4.41812 12.3093C4.31926 12.3093 4.22039 12.298 4.12194 12.2989C3.4328 12.3034 3.03734 11.5663 3.43614 10.9298C3.66766 10.5589 3.90377 10.191 4.13779 9.82221C4.4832 9.2774 4.82916 8.73287 5.17568 8.18863C5.40887 7.82361 5.80141 7.65175 6.17435 7.7431C6.33763 7.78282 6.4821 7.87791 6.58316 8.01217C6.71164 8.17611 6.83971 8.34005 6.97112 8.50191C7.32445 8.937 7.94309 8.92449 8.26722 8.46478C8.61512 7.97087 8.94635 7.46444 9.29008 6.9697C9.51743 6.64181 9.83781 6.5175 10.2274 6.59092C10.3568 6.61112 10.4788 6.66424 10.5817 6.74518C10.6847 6.82612 10.7651 6.93216 10.8152 7.05313C11.3909 8.39095 11.9678 9.72835 12.5326 11.0708C12.6241 11.2841 12.6288 11.5247 12.5457 11.7414C12.4627 11.9582 12.2985 12.134 12.0879 12.2317C11.9261 12.3047 11.7542 12.3047 11.5828 12.3051C10.3755 12.3079 9.16841 12.3093 7.96144 12.3093Z" fill="#828282"/>
<path d="M13.0119 4.96735C13.0094 5.6106 12.4237 6.19587 11.7792 6.19837C11.1189 6.19837 10.5695 5.61436 10.549 4.93856C10.5282 4.2294 11.2194 3.72881 11.788 3.72881C12.4312 3.72881 13.0153 4.32159 13.0119 4.96735Z" fill="#828282"/>
</g>
<defs>
<clipPath id="clip0_1_27">
<rect width="16" height="14.2638" fill="white" transform="translate(0 0.962654)"/>
</clipPath>
</defs>
</svg>
